#!OML:ASF X:\für Bonn\!DataBase\2005_08_10_Bjorn_Final\c3d\bjorn.ASF
:FULLY-SPECIFIED
:DEGREES
110
root 2.63667 19.4172 3.86167 -207.639 -43.8386 -160.058
lowerback 29.4254 1.16598 -3.70576
upperback 19.2121 -3.62024 -1.05582
thorax 5.89746 -3.90871 1.56765
lowerneck -11.4907 -9.72049 -4.43048
upperneck 1.99164 -16.0633 26.7604
head 5.33068 -7.60983 7.56508
rclavicle 8.90555e-014 9.54166e-015
rhumerus -48.6363 -1.85046 -89.5293
rradius 29.2273
rwrist 16.6971
rhand -7.6807 11.8609
rfingers 7.12502
rthumb 18.216 -17.3061
lclavicle 8.90555e-014 9.54166e-015
lhumerus 51.8695 -23.6773 87.0511
lradius 118.055
lwrist 3.46781
lhand -41.537 -27.4477
lfingers 7.12502
lthumb -14.4491 2.02929
rfemur -78.3408 -5.55869 19.8631
rtibia 115.997
rfoot 5.92074 15.0665
rtoes -22.4906
lfemur 0.713242 -23.3583 -8.35774
ltibia 23.8929
lfoot -4.60278 -15.8235
ltoes 2.74504
111
root 2.59201 19.438 3.85092 -207.124 -43.33 -160.539
lowerback 28.466 1.041 -3.70582
upperback 19.028 -3.62476 -1.05126
thorax 6.09314 -3.86589 1.53599
lowerneck -11.4941 -9.55871 -4.22169
upperneck 2.68505 -15.8748 26.0324
head 5.41052 -7.44813 7.32066
rclavicle -3.65764e-014 -3.18055e-015
rhumerus -48.484 -1.4465 -89.2671
rradius 29.3672
rwrist 16.4197
rhand -7.63355 11.8533
rfingers 7.12502
rthumb 18.2614 -17.3095
lclavicle -3.65764e-014 -3.18055e-015
lhumerus 50.3796 -23.2224 87.3358
lradius 117.788
lwrist 2.97088
lhand -41.8192 -27.5875
lfingers 7.12502
lthumb -14.721 1.86981
rfemur -76.9701 -5.53684 20.0953
rtibia 115.221
rfoot 5.67928 14.3552
rtoes -22.3056
lfemur 1.37382 -22.9727 -8.58002
ltibia 22.8911
lfoot -4.30452 -15.5426
ltoes 2.6985
112
root 2.5473 19.4586 3.83812 -206.52 -42.8242 -161.046
lowerback 27.4321 0.900809 -3.74768
upperback 18.8077 -3.63952 -1.05493
thorax 6.28851 -3.82416 1.51927
lowerneck -11.6025 -9.37972 -3.9826
upperneck 3.57513 -15.699 25.2298
head 5.56432 -7.27246 7.04101
rclavicle -1.11319e-014 3.81667e-014
rhumerus -48.3183 -1.06581 -88.9787
rradius 29.461
rwrist 16.2492
rhand -7.57236 11.9299
rfingers 7.12502
rthumb 18.3203 -17.2274
lclavicle -1.11319e-014 3.81667e-014
lhumerus 48.7917 -22.7149 87.6055
lradius 117.399
lwrist 2.30597
lhand -42.0132 -27.6191
lfingers 7.12502
lthumb -14.9078 1.82447
rfemur -75.6174 -5.54492 20.3007
rtibia 114.418
rfoot 5.27765 13.6393
rtoes -22.9334
lfemur 1.95296 -22.5009 -8.78466
ltibia 21.8696
lfoot -3.99644 -15.3305
ltoes 2.68036
113
root 2.50544 19.5298 3.83222 -205.922 -42.3216 -161.501
lowerback 26.3514 0.728942 -3.80928
upperback 18.5805 -3.69399 -1.01982
thorax 6.51365 -3.8061 1.5604
lowerneck -11.7571 -9.16358 -3.76674
upperneck 4.53379 -15.4638 24.3571
head 5.73765 -7.06537 6.74998
rclavicle -8.74653e-014 7.95139e-014
rhumerus -48.1449 -0.504027 -88.7292
rradius 29.6537
rwrist 15.9959
rhand -7.44572 11.8946
rfingers 7.12502
rthumb 18.4421 -17.2512
lclavicle -8.74653e-014 7.95139e-014
lhumerus 47.1475 -22.0866 87.8595
lradius 116.908
lwrist 1.51071
lhand -42.1981 -27.5713
lfingers 7.12502
lthumb -15.0859 1.85902
rfemur -73.8083 -5.48442 20.5626
rtibia 113.237
rfoot 4.73779 12.7961
rtoes -23.733
lfemur 2.51972 -21.9649 -8.92753
ltibia 20.7674
lfoot -3.60759 -15.1825
ltoes 2.70061
114
root 2.45981 19.5475 3.81678 -205.286 -41.8155 -161.983
lowerback 25.251 0.547801 -3.86782
upperback 18.329 -3.75244 -1.00854
thorax 6.72662 -3.78404 1.57344
lowerneck -11.9282 -8.93962 -3.49653
upperneck 5.57795 -15.2305 23.4228
head 5.93596 -6.85902 6.43041
rclavicle -4.92986e-014 -6.99722e-014
rhumerus -47.9906 -0.00706158 -88.4843
rradius 29.8744
rwrist 15.7472
rhand -7.28315 11.8899
rfingers 7.12502
rthumb 18.5985 -17.241
lclavicle -4.92986e-014 -6.99722e-014
lhumerus 45.47 -21.4361 88.0291
lradius 116.272
lwrist 0.707034
lhand -42.2387 -27.4666
lfingers 7.12502
lthumb -15.1251 1.96073
rfemur -72.3814 -5.53068 20.7455
rtibia 112.3
rfoot 4.3299 12.0151
rtoes -24.7435
lfemur 3.03276 -21.3742 -9.06917
ltibia 19.7079
lfoot -3.22139 -15.0912
ltoes 2.74955
115
root 2.41272 19.5655 3.7993 -204.668 -41.2952 -162.433
lowerback 24.1299 0.345124 -3.91737
upperback 18.0625 -3.83394 -0.972807
thorax 6.94487 -3.77279 1.60978
lowerneck -12.0795 -8.68493 -3.2502
upperneck 6.61559 -14.9281 22.4342
head 6.12212 -6.63005 6.10851
rclavicle -7.95139e-014 2.54444e-014
rhumerus -47.7682 0.402057 -88.1425
rradius 30.0162
rwrist 15.6749
rhand -7.10862 11.9566
rfingers 7.12502
rthumb 18.7663 -17.1581
lclavicle -7.95139e-014 2.54444e-014
lhumerus 43.7783 -20.7112 88.1418
lradius 115.483
lwrist -0.0318736
lhand -42.2097 -27.3595
lfingers 7.12502
lthumb -15.0972 2.06993
rfemur -70.8693 -5.55278 20.9276
rtibia 111.278
rfoot 3.942 11.2115
rtoes -25.4286
lfemur 3.55594 -20.6781 -9.16651
ltibia 18.5971
lfoot -2.79377 -15.0889
ltoes 2.84126
116
root 2.36286 19.5871 3.78201 -204.044 -40.7747 -162.876
lowerback 22.9711 0.134303 -3.85174
upperback 17.797 -3.90415 -0.976528
thorax 7.18096 -3.74052 1.5324
lowerneck -12.1451 -8.43508 -2.92733
upperneck 7.53772 -14.6156 21.4471
head 6.25802 -6.41824 5.7798
rclavicle -2.8625e-014 1.27222e-014
rhumerus -47.3858 0.496294 -87.7326
rradius 29.9634
rwrist 15.7943
rhand -7.00405 12.1058
rfingers 7.12502
rthumb 18.8669 -16.9992
lclavicle -2.8625e-014 1.27222e-014
lhumerus 42.1304 -20.0746 88.1042
lradius 114.545
lwrist -0.648674
lhand -42.0956 -27.1963
lfingers 7.12502
lthumb -14.9873 2.24131
rfemur -69.2334 -5.53882 21.0805
rtibia 110.141
rfoot 3.61055 10.2371
rtoes -25.5704
lfemur 3.86837 -19.9424 -9.26157
ltibia 17.8837
lfoot -2.58181 -15.1729
ltoes 2.83472
